<?xml version="1.0" encoding="UTF-8"?>
<svg id="icon" xmlns="http://www.w3.org/2000/svg" viewBox="0 0 56 56">
  <defs>
    <style>
      .cls-1 {
        fill: #200647;
      }

      .cls-1, .cls-2, .cls-3, .cls-4 {
        stroke-width: 0px;
      }

      .cls-2 {
        fill: #8a8ed1;
      }

      .cls-3 {
        fill: #7f8ced;
      }

      .cls-4 {
        fill: #fff;
      }
    </style>
  </defs>
  <path class="cls-2" d="m28,4C14.77,4,4,14.77,4,28c0,7.9,3.84,14.93,9.76,19.3.7-4.58,3.55-8.46,7.5-10.56-2.61-2.02-4.29-5.17-4.29-8.71,0-6.08,4.95-11.03,11.03-11.03s11.03,4.95,11.03,11.03c0,3.54-1.69,6.69-4.29,8.71,3.95,2.1,6.8,5.98,7.5,10.56,5.92-4.37,9.77-11.4,9.77-19.31,0-13.23-10.77-24-24-24Z"/>
  <path class="cls-2" d="m11.07,18.3c.69-1.2,2.21-1.61,3.41-.92,1.2.68,1.61,2.21.93,3.41h0c-.46.81-1.3,1.26-2.17,1.26-.42,0-.85-.11-1.24-.34-1.2-.68-1.61-2.21-.92-3.41Z"/>
  <path class="cls-2" d="m8.49,28.06c0-1.38,1.11-2.5,2.49-2.51,1.38,0,2.51,1.11,2.51,2.5s-1.11,2.5-2.49,2.5h-.01c-1.38,0-2.5-1.11-2.5-2.49Z"/>
  <path class="cls-2" d="m14.55,38.71c-.4.23-.83.34-1.26.34-.86,0-1.7-.45-2.16-1.24-.7-1.2-.29-2.73.9-3.42,1.19-.7,2.73-.29,3.42.9.69,1.19.29,2.72-.9,3.42Z"/>
  <path class="cls-2" d="m20.7,15.46c-.4.23-.83.34-1.26.34-.86,0-1.7-.44-2.16-1.24-.7-1.19-.3-2.73.9-3.42,1.19-.7,2.72-.29,3.42.9.69,1.19.29,2.72-.9,3.42Z"/>
  <path class="cls-2" d="m28,13.49h-.07c-1.38,0-2.5-1.11-2.5-2.49,0-1.38,1.11-2.5,2.49-2.51h.11c1.37.02,2.47,1.13,2.47,2.5s-1.12,2.5-2.5,2.5Z"/>
  <path class="cls-2" d="m38.67,14.52c-.47.8-1.31,1.24-2.17,1.24-.43,0-.86-.1-1.25-.33-1.2-.69-1.6-2.22-.91-3.42.69-1.19,2.22-1.6,3.41-.91,1.2.69,1.6,2.22.92,3.42Z"/>
  <path class="cls-2" d="m41.48,17.32c1.19-.69,2.72-.28,3.41.91.69,1.2.29,2.73-.91,3.42-.39.23-.82.33-1.25.33-.86,0-1.7-.44-2.17-1.24-.69-1.2-.28-2.73.92-3.42Z"/>
  <path class="cls-2" d="m44.91,37.73c-.46.81-1.3,1.26-2.17,1.26-.42,0-.85-.11-1.24-.34-1.2-.69-1.61-2.22-.92-3.41.69-1.2,2.22-1.61,3.42-.92,1.19.69,1.6,2.22.91,3.41Z"/>
  <path class="cls-2" d="m45.01,30.48c-1.38,0-2.5-1.12-2.5-2.49s1.12-2.51,2.5-2.51,2.5,1.12,2.5,2.5-1.12,2.5-2.5,2.5Z"/>
  <circle class="cls-4" cx="27.99" cy="28.03" r="7.03"/>
  <path class="cls-4" d="m27.99,39.06c-5.75,0-10.42,4.67-10.42,10.42v.13c3.15,1.53,6.69,2.39,10.43,2.39s7.26-.86,10.41-2.38v-.14c0-5.75-4.67-10.42-10.42-10.42Z"/>
  <circle class="cls-1" cx="28" cy="28" r="28"/>
  <path class="cls-4" d="m38.41,49.62c-3.15,1.52-6.68,2.38-10.41,2.38s-7.27-.86-10.43-2.39v-.13c0-5.75,4.67-10.42,10.42-10.42s10.42,4.67,10.42,10.42v.14Z"/>
  <circle class="cls-4" cx="27.99" cy="28.03" r="7.03"/>
  <path class="cls-3" d="m42.23,47.31c-.7-4.58-3.55-8.47-7.5-10.56,2.61-2.02,4.29-5.17,4.29-8.71,0-6.08-4.95-11.03-11.03-11.03s-11.03,4.95-11.03,11.03c0,3.54,1.69,6.69,4.29,8.71-3.95,2.1-6.8,5.98-7.5,10.56-5.91-4.38-9.76-11.4-9.76-19.3C4,14.77,14.77,4,28,4s24,10.77,24,24c0,7.91-3.85,14.94-9.77,19.31Z"/>
  <path class="cls-4" d="m37.75,11.1c-1.19-.69-2.72-.28-3.41.91-.69,1.2-.29,2.73.91,3.42.39.23.82.33,1.25.33.86,0,1.7-.44,2.17-1.24.68-1.2.28-2.73-.92-3.42Z"/>
  <path class="cls-4" d="m11,30.55c1.38,0,2.49-1.12,2.49-2.5s-1.13-2.5-2.51-2.5c-1.38.01-2.5,1.13-2.49,2.51,0,1.38,1.12,2.49,2.5,2.49h.01Z"/>
  <path class="cls-4" d="m42.73,21.98c.43,0,.86-.1,1.25-.33,1.2-.69,1.6-2.22.91-3.42-.69-1.19-2.22-1.6-3.41-.91-1.2.69-1.61,2.22-.92,3.42.47.8,1.31,1.24,2.17,1.24Z"/>
  <path class="cls-4" d="m11.99,21.71c.39.23.82.34,1.24.34.87,0,1.71-.45,2.17-1.26h0c.68-1.2.27-2.73-.93-3.41-1.2-.69-2.72-.28-3.41.92s-.28,2.73.92,3.41Z"/>
  <path class="cls-4" d="m44,34.32c-1.2-.69-2.73-.28-3.42.92-.69,1.19-.28,2.72.92,3.41.39.23.82.34,1.24.34.87,0,1.71-.45,2.17-1.26.69-1.19.28-2.72-.91-3.41Z"/>
  <path class="cls-4" d="m45.01,25.48c-1.38,0-2.5,1.12-2.5,2.51s1.12,2.49,2.5,2.49,2.5-1.12,2.5-2.5-1.12-2.5-2.5-2.5Z"/>
  <path class="cls-4" d="m28.03,8.49h-.11c-1.38.01-2.5,1.13-2.49,2.51,0,1.38,1.12,2.49,2.5,2.49h.07c1.38,0,2.5-1.12,2.5-2.5s-1.1-2.48-2.47-2.5Z"/>
  <path class="cls-4" d="m18.18,11.14c-1.2.69-1.6,2.23-.9,3.42.46.8,1.3,1.24,2.16,1.24.43,0,.86-.11,1.26-.34,1.19-.7,1.59-2.23.9-3.42-.7-1.19-2.23-1.6-3.42-.9Z"/>
  <path class="cls-4" d="m12.03,34.39c-1.19.69-1.6,2.22-.9,3.42.46.79,1.3,1.24,2.16,1.24.43,0,.86-.11,1.26-.34,1.19-.7,1.59-2.23.9-3.42-.69-1.19-2.23-1.6-3.42-.9Z"/>
</svg>